<svg width="11" height="19" viewBox="0 0 11 19" fill="none" xmlns="http://www.w3.org/2000/svg">
<rect x="6.84448" y="3.80005" width="3.66667" height="15.2" fill="white"/>
<line x1="10.4892" y1="3.80005" x2="10.4892" y2="19" stroke="black" stroke-width="0.2"/>
<line x1="6.94448" y1="5.88989" x2="6.94448" y2="18.9366" stroke="black" stroke-width="0.2"/>
<path d="M10.9 3.16667C10.9 3.99013 10.3194 4.75479 9.33919 5.31918C8.36162 5.88202 7.00448 6.23333 5.5 6.23333C3.99552 6.23333 2.63838 5.88202 1.66081 5.31918C0.680552 4.75479 0.1 3.99013 0.1 3.16667C0.1 2.34321 0.680552 1.57855 1.66081 1.01416C2.63838 0.451315 3.99552 0.1 5.5 0.1C7.00448 0.1 8.36162 0.451315 9.33919 1.01416C10.3194 1.57855 10.9 2.34321 10.9 3.16667Z" fill="white" stroke="black" stroke-width="0.2"/>
<line x1="6.84448" y1="18.5" x2="10.5111" y2="18.5" stroke="black"/>
<rect x="3.66675" y="2.5332" width="4.88889" height="1.26667" rx="0.633333" fill="black"/>
</svg>
