<svg width="23" height="17" viewBox="0 0 23 17" fill="none" xmlns="http://www.w3.org/2000/svg">
<rect x="0.250977" y="0.00012207" width="21.0017" height="13.4478" transform="rotate(0.905466 0.250977 0.00012207)" fill="#9A5C00"/>
<rect x="0.250977" y="0.00012207" width="21.0017" height="13.4478" transform="rotate(0.905466 0.250977 0.00012207)" fill="#9A5C00"/>
<rect x="0.250977" y="0.00012207" width="21.0017" height="13.4478" transform="rotate(0.905466 0.250977 0.00012207)" fill="#9A5C00"/>
<rect width="21.429" height="11.5256" transform="matrix(0.99246 0.122568 -0.141087 0.989997 1.66235 2.17419)" fill="#9A5C00"/>
<rect width="21.429" height="11.5256" transform="matrix(0.99246 0.122568 -0.141087 0.989997 1.66235 2.17419)" fill="#9A5C00"/>
<rect width="21.466" height="1.32562" transform="matrix(0.989503 0.144513 -0.166685 0.98601 1.61304 0.324951)" fill="#1F9900"/>
<rect width="21.483" height="1.3244" transform="matrix(0.994694 0.102877 -0.118058 0.993007 1.55322 0.0205078)" fill="#1F9900"/>
<rect width="21.4931" height="1.32367" transform="matrix(0.997971 0.0636727 -0.0720789 0.997399 1.49194 0.0195312)" fill="#1F9900"/>
</svg>
